<svg width="32" height="32" xmlns="http://www.w3.org/2000/svg" xmlns:svg="http://www.w3.org/2000/svg">
 <g>
  <title>Layer 1</title>
  <path id="svg_1" d="m27.3561,17.65868c-0.5344,-0.1336 -1.06881,-0.4008 -1.46961,-0.5344c0,-0.93521 -0.1336,-1.73681 -0.1336,-2.67202c0,-0.1336 0.1336,-0.1336 0.1336,-0.2672c0.5344,-0.2672 0.93521,-0.4008 1.46961,-0.66801c0.5344,-0.2672 0.66801,-0.80161 0.5344,-1.33601c-0.4008,-0.93521 -0.80161,-1.73681 -1.20241,-2.67202c-0.2672,-0.5344 -0.80161,-0.80161 -1.33601,-0.5344c-0.5344,0.2672 -0.93521,0.4008 -1.46961,0.66801c-0.1336,0 -0.2672,0 -0.2672,-0.1336c-0.2672,-0.4008 -0.66801,-0.66801 -0.93521,-0.93521c-0.2672,-0.2672 -0.66801,-0.5344 -0.93521,-0.80161c0.2672,-0.5344 0.4008,-1.06881 0.66801,-1.60321c0.2672,-0.66801 0,-1.20241 -0.66801,-1.46961c-0.80161,-0.1336 -1.73681,-0.5344 -2.53842,-0.80161c-0.66801,-0.2672 -1.20241,0 -1.46961,0.66801c-0.1336,0.5344 -0.4008,1.06881 -0.5344,1.46961c-0.93521,0 -1.73681,0.1336 -2.67202,0.1336c-0.1336,0 -0.1336,-0.1336 -0.2672,-0.1336c-0.2672,-0.5344 -0.4008,-0.93521 -0.66801,-1.46961c-0.2672,-0.5344 -0.80161,-0.66801 -1.33601,-0.5344c-0.93521,0.4008 -1.73681,0.80161 -2.67202,1.20241c-0.5344,0.2672 -0.80161,0.80161 -0.5344,1.33601c0.2672,0.5344 0.4008,0.93521 0.66801,1.46961c0,0.1336 0,0.2672 -0.1336,0.2672c-0.2672,0.2672 -0.5344,0.4008 -0.66801,0.66801c-0.4008,0.4008 -0.66801,0.80161 -1.06881,1.20241c-0.5344,-0.1336 -1.06881,-0.4008 -1.46961,-0.5344c-0.66801,-0.2672 -1.20241,0 -1.46961,0.66801c-0.2672,0.66801 -0.66801,1.60321 -0.93521,2.40482c-0.2672,0.80161 -0.1336,1.20241 0.66801,1.46961c0.5344,0.1336 1.06881,0.4008 1.46961,0.5344c0,0.93521 0.1336,1.73681 0.1336,2.67202c0,0.1336 -0.1336,0.1336 -0.1336,0.2672c-0.5344,0.2672 -0.93521,0.4008 -1.46961,0.66801c-0.5344,0.2672 -0.66801,0.80161 -0.5344,1.33601c0.4008,0.93521 0.80161,1.73681 1.20241,2.67202c0.2672,0.5344 0.80161,0.80161 1.33601,0.5344c0.5344,-0.2672 0.93521,-0.4008 1.46961,-0.66801c0.1336,0 0.2672,0 0.2672,0.1336c0.2672,0.4008 0.66801,0.66801 0.93521,0.93521c0.2672,0.2672 0.66801,0.5344 0.93521,0.80161c-0.2672,0.5344 -0.4008,1.06881 -0.66801,1.60321c-0.2672,0.66801 0,1.20241 0.66801,1.46961c0.80161,0.2672 1.60321,0.66801 2.53842,0.93521c0.80161,0.2672 1.20241,0.1336 1.46961,-0.66801c0.1336,-0.5344 0.4008,-1.06881 0.5344,-1.46961c0.93521,0 1.73681,-0.1336 2.67202,-0.1336c0.1336,0 0.1336,0.1336 0.2672,0.1336c0.2672,0.5344 0.4008,0.93521 0.66801,1.46961c0.2672,0.5344 0.80161,0.66801 1.33601,0.5344c0.93521,-0.4008 1.73681,-0.80161 2.67202,-1.20241c0.5344,-0.2672 0.80161,-0.80161 0.5344,-1.33601c-0.2672,-0.5344 -0.4008,-0.93521 -0.66801,-1.46961c0,-0.1336 0,-0.2672 0.1336,-0.2672c0.4008,-0.2672 0.66801,-0.66801 0.93521,-0.93521c0.2672,-0.2672 0.5344,-0.66801 0.80161,-0.93521c0.5344,0.1336 1.06881,0.4008 1.46961,0.5344c0.66801,0.2672 1.20241,0 1.46961,-0.66801c0.2672,-0.80161 0.66801,-1.60321 0.93521,-2.53842c0.2672,-0.66801 0.1336,-1.20241 -0.66801,-1.46961zm-9.35208,2.80562c-2.53842,1.06881 -5.34405,0 -6.54646,-2.53842c-1.06881,-2.53842 0,-5.34405 2.53842,-6.54646c2.53842,-1.06881 5.34405,0 6.54646,2.53842c1.06881,2.53842 0,5.34405 -2.53842,6.54646z" fill="#41535B"/>
 </g>
</svg>