<svg width="32" height="32" xmlns="http://www.w3.org/2000/svg" xmlns:svg="http://www.w3.org/2000/svg">
 <g>
  <title>Layer 1</title>
  <path id="svg_1" d="m8.320469,25.749664l1.068456,-5.342282l-3.338926,0l0,-2.804698l4.006711,0l0.667785,-3.338926l-3.472483,0l0,-2.804698l4.140268,0l1.068456,-5.208725l3.739597,0l-1.068456,5.208725l3.739597,0l1.068456,-5.208725l3.739597,0l-1.068456,5.208725l3.338926,0l0,2.804698l-3.873154,0l-0.801342,3.338926l3.472483,0l0,2.804698l-4.006711,0l-1.068456,5.342282l-3.739597,0l1.068456,-5.342282l-3.739597,0l-1.068456,5.342282l-3.873154,0zm9.215436,-8.14698l0.667785,-3.338926l-3.739597,0l-0.667785,3.338926l3.739597,0z" fill="#529BBA"/>
 </g>
</svg>