<svg width="32" height="32" xmlns="http://www.w3.org/2000/svg" xmlns:svg="http://www.w3.org/2000/svg">
 <g>
  <title>Layer 1</title>
  <path id="svg_1" d="m22.97368,17.57895c1.31579,0 2.36842,-1.05263 2.36842,-2.36842s-1.05263,-2.36842 -2.36842,-2.36842s-2.36842,1.05263 -2.36842,2.36842s1.05263,2.36842 2.36842,2.36842zm-14.60526,-7.23684l0,16.31579l20.13158,0l0,-16.31579l-20.13158,0zm0.92105,0.92105l18.28947,0l0,14.21053l-4.73684,-5.39474l-2.89474,3.42105l-5.78947,-6.18421l-4.86842,6.05263l0,-12.10526zm12.89474,-5.92105l-18.68421,0l0,14.21053l2.5,0l0,-11.97368l16.18421,0l0,-2.23684z" fill="#9F74B3"/>
 </g>
</svg>