<svg width="32" height="32" xmlns="http://www.w3.org/2000/svg" xmlns:svg="http://www.w3.org/2000/svg">
 <g>
  <title>Layer 1</title>
  <path id="svg_1" d="m3.3,14.58059c2.24118,0 2.54,-1.19529 2.54,-2.24118c0,-0.89647 -0.14941,-1.64353 -0.14941,-2.54s-0.14941,-1.79294 -0.14941,-2.54c0,-3.13765 1.94235,-4.48235 5.08,-4.48235l1.19529,0l0,2.83882l-0.59765,0c-1.49412,0 -1.94235,0.89647 -1.94235,2.39059c0,0.59765 0.14941,1.19529 0.14941,1.94235c0,0.59765 0.14941,1.34471 0.14941,2.24118c0,2.54 -1.04588,3.43647 -2.83882,3.88471c1.79294,0.44824 2.83882,1.34471 2.83882,3.88471c0,0.89647 -0.14941,1.64353 -0.14941,2.24118c0,0.59765 -0.14941,1.34471 -0.14941,1.79294c0,1.49412 0.44824,2.39059 1.94235,2.39059l0.59765,0l0,2.83882l-1.19529,0c-2.98824,0 -4.93059,-1.19529 -4.93059,-4.48235c0,-0.89647 0,-1.64353 0.14941,-2.54c0.14941,-0.89647 0.14941,-1.79294 0.14941,-2.54c0,-0.89647 -0.29882,-2.24118 -2.54,-2.24118l-0.14941,-2.83882zm25.4,2.54c-2.24118,0 -2.54,1.34471 -2.54,2.24118s0.14941,1.64353 0.14941,2.54c0.14941,0.89647 0.14941,1.79294 0.14941,2.54c0,3.28706 -2.09176,4.48235 -5.08,4.48235l-1.19529,0l0,-2.54l0.59765,0c1.49412,0 1.94235,-0.89647 1.94235,-2.39059c0,-0.59765 0,-1.19529 -0.14941,-1.79294c0,-0.74706 -0.14941,-1.49412 -0.14941,-2.24118c0,-2.54 1.04588,-3.43647 2.83882,-3.88471c-1.79294,-0.44824 -2.83882,-1.34471 -2.83882,-3.88471c0,-0.89647 0.14941,-1.64353 0.14941,-2.24118c0.14941,-0.74706 0.14941,-1.34471 0.14941,-1.94235c0,-1.49412 -0.59765,-2.24118 -1.94235,-2.39059l-0.59765,0l0,-2.83882l1.19529,0c3.13765,0 5.08,1.34471 5.08,4.48235c0,0.89647 -0.14941,1.64353 -0.14941,2.54c-0.14941,0.89647 -0.14941,1.79294 -0.14941,2.54c0,1.04588 0.29882,2.24118 2.54,2.24118l0,2.54z" fill="#DBCD68"/>
 </g>
</svg>