<svg width="32" height="32" xmlns="http://www.w3.org/2000/svg" xmlns:svg="http://www.w3.org/2000/svg">
 <g>
  <title>Layer 1</title>
  <path id="svg_1" d="m11.68298,21.04637c-0.13314,-0.79884 -0.53256,-1.46455 -1.33141,-1.73083c-0.26628,-0.13314 -0.6657,-0.39942 -0.93198,-0.53256c-0.39942,-0.13314 -0.79884,-0.26628 -1.06513,-0.39942c-0.26628,-0.13314 -0.53256,0 -0.79884,0.26628c-0.13314,0.26628 0,0.53256 0.13314,0.6657c0.13314,0.26628 0.26628,0.39942 0.53256,0.6657c0.26628,0.39942 0.53256,0.6657 0.93198,1.06513c0.26628,0.39942 0.53256,0.6657 0.39942,1.19827c-0.13314,0.93198 -0.53256,1.86397 -1.19827,2.52967c-0.13314,0.13314 -0.26628,0.13314 -0.26628,0.13314c-0.39942,0 -0.93198,-0.26628 -1.19827,-0.53256c-0.39942,-0.39942 -0.26628,-0.79884 0.13314,-1.06513c0.13314,0 0.26628,-0.13314 0.26628,-0.26628c0.26628,-0.26628 0.39942,-0.53256 0.26628,-0.93198c-0.13314,-0.13314 -0.13314,-0.26628 -0.26628,-0.39942c-0.53256,-0.53256 -1.19827,-1.06513 -1.86397,-1.59769c-1.73083,-1.33141 -2.52967,-2.9291 -2.66281,-4.79306c-0.13314,-2.13025 0.39942,-4.12736 1.46455,-5.99133c0.39942,-0.6657 0.93198,-1.33141 1.73083,-1.73083c0.53256,-0.26628 1.06513,-0.39942 1.59769,-0.53256c1.46455,-0.39942 3.06224,-0.6657 4.65992,-0.39942c1.33141,0.26628 2.39653,0.93198 2.79595,2.26339c0.26628,0.93198 0.39942,1.73083 0.26628,2.66281c-0.13314,1.86397 -1.59769,3.46166 -3.32852,3.99422c-0.79884,0.26628 -1.19827,0.13314 -1.59769,-0.53256c-0.26628,-0.39942 -0.6657,-0.93198 -0.93198,-1.46455l0,-0.13314c0,-0.13314 -0.13314,-0.13314 -0.13314,-0.26628c0.13314,0.79884 0.26628,1.59769 0.6657,2.26339c0.26628,0.39942 0.53256,0.6657 1.06513,0.6657c1.73083,0.13314 3.06224,-0.39942 4.12736,-1.73083c1.06513,-1.46455 1.33141,-3.19538 1.06513,-5.05935c0,-0.39942 -0.13314,-0.6657 -0.26628,-1.06513c0,-0.26628 0,-0.39942 0.26628,-0.53256c0.13314,0 0.26628,0 0.26628,-0.13314c1.33141,-0.26628 2.79595,-0.39942 4.12736,-0.26628c1.59769,0.13314 3.06224,0.53256 4.39364,1.46455c2.13025,1.33141 3.46166,3.32852 4.12736,5.72505c0.13314,0.39942 0.13314,0.6657 0.13314,1.06513c0,0.26628 -0.13314,0.26628 -0.39942,0.13314c-0.26628,-0.13314 -0.39942,-0.39942 -0.53256,-0.53256c-0.13314,-0.13314 -0.26628,-0.39942 -0.39942,-0.53256c-0.13314,-0.13314 -0.26628,-0.13314 -0.26628,0s-0.13314,0.26628 -0.13314,0.39942c-0.39942,1.33141 -0.93198,2.52967 -1.86397,3.46166c-0.13314,0.13314 -0.26628,0.39942 -0.26628,0.53256c0,0.53256 -0.13314,1.06513 0,1.59769c0.13314,1.06513 0.26628,2.26339 0.39942,3.32852c0.13314,0.6657 -0.13314,0.93198 -0.6657,1.19827c-0.39942,0.13314 -0.79884,0.26628 -1.33141,0.26628l-2.13025,0c0,-0.79884 0,-1.59769 -0.6657,-1.99711c0.13314,-0.53256 0.26628,-1.06513 0.39942,-1.73083c0.13314,-0.53256 0,-0.93198 -0.26628,-1.33141c-0.26628,-0.39942 -0.6657,-0.39942 -1.06513,-0.26628c-1.06513,0.6657 -2.13025,0.6657 -3.32852,0.26628c-0.53256,-0.13314 -0.93198,-0.13314 -1.19827,0.39942c-0.26628,0.53256 -0.39942,1.06513 -0.39942,1.59769c0,0.6657 0.13314,1.46455 0.26628,2.13025c0,0.39942 0,0.53256 -0.39942,0.6657c-0.93198,0.26628 -1.86397,0.26628 -2.66281,0.13314l-0.13314,0c0,-0.79884 0,-1.59769 -0.93198,-1.99711c0.53256,-0.53256 0.53256,-1.46455 0.39942,-2.26339zm-5.45877,-3.06224c0.13314,-0.13314 0.26628,-0.26628 0.26628,-0.53256c0.13314,-0.39942 -0.26628,-1.06513 -0.6657,-1.19827c-0.26628,-0.13314 -0.39942,0 -0.53256,0.13314c-0.39942,0.39942 -0.6657,0.79884 -1.06513,1.19827c0,0.13314 -0.13314,0.13314 -0.13314,0.26628c-0.13314,0.26628 0,0.53256 0.26628,0.53256c0.13314,0 0.39942,0 0.53256,0.13314c0.53256,0 0.93198,-0.13314 1.33141,-0.53256zm0,-4.39364c0,-0.26628 -0.26628,-0.53256 -0.53256,-0.53256s-0.6657,0.26628 -0.53256,0.6657c0,0.26628 0.26628,0.53256 0.6657,0.53256c0.13314,-0.13314 0.39942,-0.39942 0.39942,-0.6657z" fill="#9F74B3"/>
 </g>
</svg>